<svg xmlns="http://www.w3.org/2000/svg" viewBox="0 0 100 100">
  <defs>
    <radialGradient id="catBg" cx="50%" cy="35%">
      <stop offset="0%" stop-color="#ffd59a"/>
      <stop offset="100%" stop-color="#e89050"/>
    </radialGradient>
  </defs>
  <circle cx="50" cy="50" r="46" fill="url(#catBg)" stroke="#6b3a12" stroke-width="3"/>
  <!-- ears -->
  <polygon points="22,28 34,18 36,38" fill="#e89050" stroke="#6b3a12" stroke-width="2.5" stroke-linejoin="round"/>
  <polygon points="78,28 66,18 64,38" fill="#e89050" stroke="#6b3a12" stroke-width="2.5" stroke-linejoin="round"/>
  <polygon points="27,27 33,24 32,33" fill="#ffb5c0"/>
  <polygon points="73,27 67,24 68,33" fill="#ffb5c0"/>
  <!-- face -->
  <ellipse cx="50" cy="58" rx="28" ry="24" fill="#fff5e3"/>
  <!-- eyes -->
  <ellipse cx="40" cy="52" rx="4" ry="5" fill="#2a1a0a"/>
  <ellipse cx="60" cy="52" rx="4" ry="5" fill="#2a1a0a"/>
  <circle cx="41.5" cy="50" r="1.4" fill="#fff"/>
  <circle cx="61.5" cy="50" r="1.4" fill="#fff"/>
  <!-- nose & mouth -->
  <path d="M46 62 L50 65 L54 62 Z" fill="#ff8fa3"/>
  <path d="M50 65 Q46 70 42 68" stroke="#2a1a0a" stroke-width="1.8" fill="none" stroke-linecap="round"/>
  <path d="M50 65 Q54 70 58 68" stroke="#2a1a0a" stroke-width="1.8" fill="none" stroke-linecap="round"/>
  <!-- whiskers -->
  <line x1="20" y1="60" x2="32" y2="62" stroke="#6b3a12" stroke-width="1.5" stroke-linecap="round"/>
  <line x1="20" y1="66" x2="32" y2="66" stroke="#6b3a12" stroke-width="1.5" stroke-linecap="round"/>
  <line x1="80" y1="60" x2="68" y2="62" stroke="#6b3a12" stroke-width="1.5" stroke-linecap="round"/>
  <line x1="80" y1="66" x2="68" y2="66" stroke="#6b3a12" stroke-width="1.5" stroke-linecap="round"/>
  <!-- cheeks -->
  <circle cx="32" cy="64" r="3" fill="#ffb5c0" opacity="0.7"/>
  <circle cx="68" cy="64" r="3" fill="#ffb5c0" opacity="0.7"/>
</svg>
