<svg xmlns="http://www.w3.org/2000/svg" viewBox="0 0 100 100">
  <defs>
    <radialGradient id="foxBg" cx="50%" cy="35%">
      <stop offset="0%" stop-color="#ff9a5a"/>
      <stop offset="100%" stop-color="#c94f1b"/>
    </radialGradient>
  </defs>
  <circle cx="50" cy="50" r="46" fill="url(#foxBg)" stroke="#5a1f08" stroke-width="3"/>
  <!-- ears -->
  <polygon points="20,30 32,16 38,34" fill="#c94f1b" stroke="#5a1f08" stroke-width="2.5" stroke-linejoin="round"/>
  <polygon points="80,30 68,16 62,34" fill="#c94f1b" stroke="#5a1f08" stroke-width="2.5" stroke-linejoin="round"/>
  <polygon points="26,27 31,22 33,30" fill="#2a1a0a"/>
  <polygon points="74,27 69,22 67,30" fill="#2a1a0a"/>
  <!-- face mask (white lower) -->
  <path d="M25 55 Q50 85 75 55 Q70 72 50 78 Q30 72 25 55 Z" fill="#fff5e3"/>
  <!-- eyes -->
  <ellipse cx="39" cy="50" rx="4" ry="5" fill="#2a1a0a"/>
  <ellipse cx="61" cy="50" rx="4" ry="5" fill="#2a1a0a"/>
  <circle cx="40.5" cy="48" r="1.3" fill="#fff"/>
  <circle cx="62.5" cy="48" r="1.3" fill="#fff"/>
  <!-- snout -->
  <ellipse cx="50" cy="68" rx="9" ry="6" fill="#fff5e3"/>
  <ellipse cx="50" cy="63" rx="3" ry="2.5" fill="#2a1a0a"/>
  <!-- mouth -->
  <path d="M50 65 Q46 70 42 69" stroke="#2a1a0a" stroke-width="1.8" fill="none" stroke-linecap="round"/>
  <path d="M50 65 Q54 70 58 69" stroke="#2a1a0a" stroke-width="1.8" fill="none" stroke-linecap="round"/>
  <!-- cheeks -->
  <circle cx="28" cy="60" r="3" fill="#ff6680" opacity="0.5"/>
  <circle cx="72" cy="60" r="3" fill="#ff6680" opacity="0.5"/>
</svg>
